<svg xmlns="http://www.w3.org/2000/svg" viewBox="0 0 2490 2500"><path fill="#fff" d="M2306 5H184C82.4 5 0 84.9 0 183.4v2133.3c0 98.5 82.4 178.3 184 178.3h2121.9c101.6 0 184-79.9 184-178.3V183.4c0-98.5-82.4-178.4-184-178.4ZM397.9 2080.7v-1121h372.6v1121zM584.3 806.6h-2.4c-125.1 0-205.9-86.1-205.9-193.7s83.3-193.7 210.8-193.7 205.9 83.7 208.3 193.7c0 107.6-80.9 193.7-210.8 193.7m1529.8 1274.1h-372.6v-599.6c0-150.7-54-253.5-188.7-253.5s-164.3 69.3-191.2 136.3c-9.8 23.9-12.3 57.4-12.3 90.9v626H976.7s4.9-1015.8 0-1121h372.6v158.7c49.5-76.4 138.2-185 335.8-185S2114 1093.7 2114 1438v642.8Z"/></svg>