<svg xmlns="http://www.w3.org/2000/svg" viewBox="0 0 2500 2500"><path fill="#fff" d="M1250 0C559.6 0 0 559.6 0 1250s559.6 1250 1250 1250 1250-559.6 1250-1250S1940.4 0 1250 0m596.1 812.9c-3.6 50.6-32.5 227.6-61.4 419.1-43.4 271-90.3 567.2-90.3 567.2s-7.2 83.1-68.6 97.5-162.6-50.6-180.6-65c-14.5-10.8-271-173.4-364.9-252.9-25.3-21.7-54.2-65 3.6-115.6 130.1-119.2 285.4-267.3 379.3-361.3 43.4-43.4 86.7-144.5-93.9-21.7-256.5 177-509.4 343.2-509.4 343.2s-57.8 36.1-166.2 3.6-234.8-75.9-234.8-75.9-86.7-54.2 61.4-112 625-256.5 841.8-346.8c83.1-36.1 364.9-151.7 364.9-151.7s130.1-50.6 119.2 72.3Z"/></svg>