<svg xmlns="http://www.w3.org/2000/svg" viewBox="0 0 2500 2500"><path fill="#fff" d="M2433.7 712c-2.5-44.8-6.2-86.8-11.3-126-1-7.8-2.1-15.6-3.2-23.2s-2.3-15.1-3.5-22.5-2.5-14.7-3.8-21.9c-.7-3.6-1.4-7.2-2-10.7-69-351-279.7-445.8-794.7-445.8h-729c-551.4 0-754.8 108.6-808.4 523.4q-2.25 17.55-4.2 36c-1.7 16.3-3.2 33.1-4.5 50.3-1 12.9-1.9 26.1-2.6 39.5q-1.95 33.6-3 69.3c-1 33.4-1.5 68.2-1.5 104.6v729c0 52 1 100.9 3 146.9.4 9.2.9 18.3 1.4 27.2.8 13.4 1.6 26.6 2.6 39.6 1.6 21.6 3.6 42.4 5.8 62.5.9 8.1 1.9 16 2.9 23.8 8.1 62.7 19.5 118.4 35 167.9 1 3.1 2 6.2 3 9.2 6 18.2 12.6 35.6 19.8 52.1 1.2 2.8 2.4 5.5 3.7 8.2 3.7 8.1 7.6 16 11.6 23.7 2.7 5.1 5.4 10.2 8.3 15.1 2.8 5 5.7 9.8 8.7 14.6s6 9.5 9.1 14.1c7.8 11.5 16.1 22.4 24.9 32.9 1.8 2.1 3.5 4.1 5.3 6.2 7.2 8.2 14.7 16 22.5 23.5 3.9 3.8 7.9 7.4 12 11s8.2 7.1 12.5 10.6c31.8 25.8 68.4 47.2 110.3 64.8 5.6 2.3 11.3 4.6 17.1 6.8 8.7 3.3 17.6 6.5 26.7 9.5 30.4 10.1 63.2 18.5 98.6 25.5 3.5.7 7.1 1.4 10.7 2.1 100.7 18.8 222 26.4 367.6 26.4h729c88 0 167.1-2.7 238.2-9 .8 0 1.5-.1 2.2-.2 52.7-4.7 100.9-11.5 145.1-20.5 2.7-.5 5.3-1.1 8-1.7 44.3-9.4 84.4-21.2 120.5-35.8 4-1.6 8-3.3 11.9-4.9 4.1-1.7 8.1-3.5 12-5.3 5.2-2.4 10.3-4.8 15.3-7.3h.2c.1 0 .2-.1.4-.2 4.8-2.4 9.4-4.8 14-7.3.9-.5 1.7-.9 2.6-1.4 3.8-2.1 7.5-4.2 11.2-6.4 98.5-58 160.6-145.7 197.4-274 1.8-6.4 3.6-12.8 5.3-19.4 28.9-111.7 40.1-252.6 40.1-429.5v-729c0-62.4-1.4-120.4-4.4-174.2Zm-453.5 1045.4h-173.3c-65.6 0-85.4-53.2-203-170.8-102.7-99-146-111.4-172-111.4s-45.8 9.9-45.8 59.4v155.9c0 42.1-13.6 66.8-123.8 66.8-183.2 0-384.9-111.4-528.5-316.8C518.5 1139.8 460.3 912 460.3 866.2s9.9-49.5 59.4-49.5H693c44.6 0 60.6 19.8 78 65.6 84.2 247.5 227.7 462.9 285.9 462.9s32.2-9.9 32.2-65.6v-255c-7.4-116.3-69.3-126.2-69.3-168.3s17.3-39.6 44.6-39.6h272.3c37.1 0 49.5 18.6 49.5 63.1v344.1c0 37.1 16.1 49.5 27.2 49.5 22.3 0 39.6-12.4 80.4-53.2 125-138.6 212.9-354 212.9-354 11.1-26 30.9-49.5 75.5-49.5h173.3c52 0 63.1 26 52 63.1-21 101.5-232.7 398.5-232.7 399.8-18.6 28.5-26 43.3 0 76.7 17.3 26 78 76.7 118.8 125 74.3 84.2 130 154.7 146 203 14.9 48.3-9.9 73-59.4 73Z"/></svg>