<svg xmlns="http://www.w3.org/2000/svg" viewBox="0 0 218.1 217.98">
  <path fill="#fff" d="M81.91,212.71c0-2.67-.1-11.48-.15-20.83-30.56,6.77-37.01-13.2-37.01-13.2-5-12.93-12.2-16.37-12.2-16.37-9.97-6.94.75-6.8.75-6.8,11.03.79,16.84,11.53,16.84,11.53,9.8,17.1,25.7,12.16,31.97,9.3.99-7.23,3.83-12.16,6.97-14.96-24.4-2.83-50.05-12.42-50.05-55.28,0-12.21,4.29-22.19,11.32-30.03-1.14-2.82-4.9-14.19,1.06-29.6,0,0,9.22-3.01,30.22,11.47,8.76-2.48,18.16-3.72,27.5-3.76,9.34.04,18.74,1.28,27.52,3.76,20.97-14.47,30.18-11.47,30.18-11.47,5.98,15.41,2.22,26.79,1.08,29.6,7.04,7.83,11.31,17.81,11.31,30.03,0,42.96-25.7,52.42-50.16,55.19,3.94,3.47,7.45,10.28,7.45,20.72,0,14.97-.13,27.01-.13,30.7,0,2.09.98,4.43,3.49,5.26,45.22-13.56,78.24-56.21,78.24-106.73C218.1,49.8,169.28,0,109.05,0S0,49.8,0,111.24c0,50.54,33.04,93.2,78.29,106.74,2.58-.81,3.61-3.16,3.61-5.27Z"/>
</svg>