<svg xmlns="http://www.w3.org/2000/svg" viewBox="0 0 219.1 224.78" fill="#fff"><path d="M160.19 73.33c-1.17-3-2.56-5.15-4.81-7.4s-4.39-3.65-7.4-4.81c-2.27-.87-5.67-1.93-11.94-2.21-6.78-.31-8.82-.37-25.99-.37s-19.2.06-25.98.37c-6.27.28-9.68 1.33-11.94 2.21-3.01 1.16-5.15 2.56-7.4 4.81s-3.64 4.39-4.81 7.4c-.87 2.27-1.93 5.67-2.21 11.94-.31 6.78-.37 8.81-.37 25.99s.06 19.21.37 25.99c.28 6.27 1.33 9.68 2.21 11.94 1.16 3 2.56 5.14 4.81 7.39s4.39 3.64 7.4 4.81c2.26.88 5.67 1.93 11.94 2.21 6.78.31 8.81.37 25.98.37s19.21-.06 25.99-.37c6.27-.28 9.68-1.33 11.94-2.21 3-1.17 5.15-2.56 7.4-4.81s3.64-4.39 4.81-7.39c.88-2.26 1.93-5.67 2.21-11.94.31-6.78.37-8.81.37-25.99s-.06-19.2-.37-25.99c-.29-6.27-1.33-9.68-2.21-11.94m-50.14 70.95c-18.24 0-33.02-14.78-33.02-33.02s14.78-33.02 33.02-33.02 33.02 14.78 33.02 33.02-14.78 33.02-33.02 33.02m34.33-59.63c-4.26 0-7.72-3.46-7.71-7.72 0-4.26 3.46-7.71 7.72-7.71s7.72 3.46 7.71 7.72c0 4.26-3.46 7.72-7.72 7.71"/><path d="M110.05 89.82c-11.84 0-21.43 9.6-21.43 21.44s9.59 21.44 21.43 21.44 21.44-9.6 21.44-21.44-9.6-21.44-21.44-21.44"/><path d="M109.05 0C48.82 0 0 49.81 0 111.26s48.82 111.26 109.05 111.26S218.1 172.71 218.1 111.26 169.28 0 109.05 0m64.92 137.77c-.31 6.85-1.4 11.52-2.99 15.61-1.65 4.23-3.84 7.82-7.42 11.39s-7.16 5.77-11.39 7.42c-4.09 1.59-8.76 2.68-15.61 2.99-6.86.32-9.05.39-26.51.39s-19.65-.08-26.51-.39c-6.85-.31-11.52-1.4-15.61-2.99-4.23-1.65-7.81-3.85-11.39-7.42s-5.78-7.16-7.42-11.39c-1.59-4.09-2.68-8.76-2.99-15.61-.32-6.86-.39-9.05-.39-26.51s.07-19.65.39-26.51c.31-6.85 1.4-11.52 2.99-15.61 1.64-4.23 3.84-7.82 7.42-11.39s7.16-5.78 11.39-7.42c4.09-1.59 8.76-2.67 15.61-2.99 6.86-.32 9.05-.39 26.52-.39s19.65.08 26.51.39c6.84.31 11.52 1.4 15.61 2.99 4.22 1.64 7.81 3.84 11.39 7.42 3.57 3.58 5.77 7.16 7.42 11.39 1.59 4.09 2.68 8.76 2.99 15.61.31 6.86.38 9.05.38 26.51s-.07 19.65-.38 26.51Z"/></svg>