<svg xmlns="http://www.w3.org/2000/svg" viewBox="0 0 219.1 224.78" fill="#fff"><path d="M109.05 0C48.82 0 0 49.81 0 111.26s48.82 111.26 109.05 111.26S218.1 172.71 218.1 111.26 169.28 0 109.05 0M64.31 153.05V88.56h21.44v64.49zm10.73-73.3h-.14c-7.19 0-11.85-4.95-11.85-11.14s4.79-11.14 12.13-11.14 11.84 4.81 11.98 11.14c0 6.19-4.65 11.14-12.13 11.14Zm88.01 73.3h-21.43v-34.5c0-8.67-3.1-14.58-10.86-14.58-5.92 0-9.45 3.99-11 7.84-.57 1.37-.71 3.3-.71 5.23v36.01H97.61s.28-58.44 0-64.49h21.44v9.13c2.85-4.39 7.94-10.65 19.32-10.65 14.1 0 24.68 9.22 24.68 29.03z"/></svg>