<svg xmlns="http://www.w3.org/2000/svg" viewBox="0 0 219.1 224.78" fill="#fff"><path class="cls-1" d="M109.05 0C48.82 0 0 49.81 0 111.26s48.82 111.26 109.05 111.26S218.1 172.71 218.1 111.26 169.28 0 109.05 0m46.97 75.48c-.29 4.01-2.58 18.05-4.87 33.23-3.44 21.48-7.16 44.97-7.16 44.97s-.57 6.59-5.44 7.73-12.89-4.01-14.32-5.16c-1.15-.86-21.48-13.75-28.93-20.05-2.01-1.72-4.3-5.16.29-9.17 10.31-9.45 22.63-21.2 30.08-28.64 3.44-3.44 6.87-11.46-7.45-1.72-20.34 14.04-40.39 27.21-40.39 27.21s-4.58 2.86-13.18.29c-8.59-2.58-18.62-6.02-18.62-6.02s-6.87-4.3 4.87-8.88c0 0 49.55-20.34 66.74-27.5 6.59-2.86 28.93-12.03 28.93-12.03s10.31-4.01 9.45 5.73Z"/></svg>