<svg xmlns="http://www.w3.org/2000/svg" viewBox="0 0 219.1 224.78" fill="#fff"><path d="M109.05 0C48.82 0 0 49.81 0 111.26s48.82 111.26 109.05 111.26S218.1 172.71 218.1 111.26 169.28 0 109.05 0m63.16 153.35H156.7c-5.87 0-7.64-4.76-18.17-15.29-9.19-8.86-13.07-9.97-15.4-9.97-3.21 0-4.1.89-4.1 5.32v13.96c0 3.77-1.22 5.98-11.08 5.98-16.39 0-34.45-9.97-47.3-28.36-19.27-26.92-24.48-47.3-24.48-51.4 0-2.33.89-4.43 5.32-4.43H57c3.99 0 5.43 1.77 6.98 5.87 7.53 22.15 20.38 41.43 25.59 41.43 1.99 0 2.88-.89 2.88-5.87V87.77c-.66-10.41-6.2-11.3-6.2-15.07 0-1.66 1.55-3.54 3.99-3.54h24.37c3.32 0 4.43 1.66 4.43 5.65v30.8c0 3.32 1.44 4.43 2.44 4.43 1.99 0 3.54-1.11 7.2-4.76 11.19-12.41 19.05-31.68 19.05-31.68 1-2.33 2.77-4.43 6.76-4.43H170c4.65 0 5.65 2.33 4.65 5.65-1.88 9.08-20.83 35.67-20.83 35.78-1.66 2.55-2.33 3.88 0 6.87 1.55 2.33 6.98 6.87 10.63 11.19 6.65 7.53 11.63 13.85 13.07 18.17 1.33 4.32-.89 6.54-5.32 6.54Z"/></svg>