<?xml version="1.0" encoding="UTF-8"?>
<svg xmlns="http://www.w3.org/2000/svg" version="1.1" viewBox="0 0 400 400">
  <defs>
    <style>
      .cls-1 {
        fill: #60a5fa;
      }
    </style>
  </defs>
  <!-- Generator: Adobe Illustrator 28.7.1, SVG Export Plug-In . SVG Version: 1.2.0 Build 142)  -->
  <g>
    <g id="Layer_1">
      <path class="cls-1" d="M200,38.9l-82.9,143.5c31.4-9.7,65.3-11.1,98-3.4l28,6.6-26.3,111.7-28-6.6c-21.5-5.1-44,0-61.4,13.7-8.6,6.8-15.5,15.4-20.2,25.2l-25.9-12.5c6.6-13.7,16.3-25.8,28.3-35.2,24.2-19.2,55.8-26.2,85.9-19.1l13.1-55.7c-47-11.1-96.6,0-134.5,30-37.9,30-60,75.7-60,124.1h372S200,38.9,200,38.9Z"/>
    </g>
  </g>
</svg>